<svg width="140" height="80" viewBox="0 0 140 80" fill="none" xmlns="http://www.w3.org/2000/svg">
<path d="M130.871 79.4358H1.15723L2.51786 76.6966L6.14621 70.7618L12.4958 66.653L23.8344 62.0878L22.9273 60.7182L20.6596 55.6964L21.1131 49.305L25.6486 42.0005V38.3483L26.1021 32.87L28.8234 27.3917L31.9982 25.109L34.7195 20.5437L41.9761 13.2393L63.2927 4.56528L81.888 0.456528L92.3195 3.65222L96.4014 8.2175L99.5762 9.13055L105.019 12.3262L108.647 19.1742L109.554 26.0221L110.915 27.3917L114.543 36.5222L113.636 43.3701L116.357 51.5876L126.789 56.1529L135.406 63.9139L139.034 72.1314L136.313 78.0662L130.871 79.4358Z" fill="white"/>
<path d="M115.769 52.2087C115.267 49.3765 114.341 46.6375 113.025 44.0848L112.899 43.8359L112.966 43.5672C112.989 43.4684 115.318 33.5705 109.045 26.9719L108.833 26.7466V26.4345C108.816 23.6081 108.334 20.8042 107.406 18.1368C105.446 12.7631 101.866 9.90236 96.7412 9.63762L96.8196 8.13614C102.528 8.43644 106.677 11.7278 108.817 17.6587C109.767 20.3856 110.276 23.2486 110.323 26.1381C116.404 32.7763 114.84 41.9077 114.471 43.6423C115.788 46.2634 116.713 49.0661 117.216 51.9597L115.769 52.2087Z" fill="black"/>
<path d="M23.3429 62.2093L23.2997 62.154C22.7819 61.5458 22.2951 60.9115 21.8412 60.2535C16.1952 51.7108 23.5272 43.1049 25.0955 41.4256C24.3427 36.8422 24.9779 32.8395 26.9814 29.5244C28.2867 27.3861 30.1111 25.6183 32.2824 24.3877L33.0039 25.6838C25.221 30.0302 26.1541 38.9126 26.6286 41.5323L26.6991 41.9275L26.409 42.208C24.852 43.8271 23.5639 45.6882 22.594 47.72C20.6022 51.9716 20.7669 55.9071 23.088 59.4197C23.5137 60.0356 23.9704 60.6291 24.4564 61.1978L24.4995 61.2531L23.3429 62.2093Z" fill="black"/>
<path d="M103.672 53.2083C103.672 53.2083 102.825 54.4609 102.433 54.4609C102.041 54.4609 102.496 52.2916 102.496 52.2916C108.271 44.7842 103.256 22.4753 99.6727 15.45C95.9715 8.19146 93.1092 3.64749 84.5696 1.72717C76.1045 -0.181291 48.9761 9.85099 42.2244 14.1381C41.6872 14.4819 41.154 14.8415 40.656 15.205C38.4444 16.8226 36.5846 18.879 35.1909 21.2477C33.7971 23.6165 32.899 26.2476 32.5516 28.9791C31.9088 33.7298 31.7943 38.538 32.2105 43.3143L31.0813 45.373L30.7284 43.4526C30.3018 38.5646 30.4175 33.6438 31.0734 28.7815C31.4485 25.8465 32.4152 23.0198 33.9141 20.4751C35.413 17.9304 37.4124 15.7214 39.7895 13.984C40.3149 13.5889 40.8717 13.2293 41.4363 12.8698C48.5252 8.36927 75.9398 -1.74995 84.899 0.261252C94.0542 2.31987 97.2222 7.34194 101.006 14.7624C104.817 22.2461 109.902 45.1082 103.672 53.2083Z" fill="black"/>
<path d="M72.2444 39.5883H72.1934C71.9974 39.5761 71.8143 39.486 71.6842 39.3378C71.554 39.1897 71.4876 38.9955 71.4994 38.798C71.6405 36.5932 70.1938 34.1237 70.1781 34.1C70.1266 34.0154 70.0921 33.9214 70.0767 33.8234C70.0612 33.7254 70.0651 33.6253 70.088 33.5288C70.1109 33.4323 70.1525 33.3413 70.2104 33.261C70.2682 33.1807 70.3412 33.1127 70.4251 33.0608C70.509 33.0089 70.6023 32.9742 70.6995 32.9586C70.7967 32.943 70.8961 32.9469 70.9918 32.97C71.0876 32.9931 71.1779 33.035 71.2576 33.0933C71.3373 33.1516 71.4048 33.2251 71.4563 33.3097C71.5229 33.4243 73.1579 36.1981 72.9854 38.8731C72.9764 39.0653 72.8944 39.2467 72.7565 39.3798C72.6186 39.5128 72.4353 39.5875 72.2444 39.5883Z" fill="black"/>
<path d="M32.4389 80.6065L30.6823 80.164C31.3646 79.6819 32.9251 78.4372 33.5642 77.9907C37.6027 75.1695 40.7942 72.941 44.2603 69.0055C45.6326 67.425 47.397 65.1175 46.7853 62.9285C46.4756 61.7905 45.6091 60.8817 44.6602 59.9216L44.2681 59.4948C42.0127 57.1273 40.2139 54.3578 38.9632 51.3275C38.7123 50.7151 38.477 50.0868 38.2496 49.4744C37.5007 47.4632 36.795 45.5626 35.4383 44.1204C34.8424 43.4922 33.87 42.8718 33.125 43.1919C32.5016 43.4606 32.1331 44.3022 32.0272 45.7009C31.8421 48.239 32.0511 50.7906 32.6467 53.2637C32.7839 53.8129 33.9445 58.7322 31.8076 60.7711C30.7568 61.7787 29.3022 62.0434 28.0201 62.2726C27.7535 62.32 27.4908 62.3674 27.2359 62.4227C22.6877 63.371 16.83 64.8528 11.8544 67.9269C6.53771 71.2104 3.22851 75.2169 2.05225 79.832L0.609375 79.8518C1.67193 73.8261 5.4085 70.1396 11.0624 66.6466C16.234 63.4501 22.2564 61.9249 26.9222 60.9529C27.1836 60.8975 27.4581 60.8462 27.7456 60.7987C28.9219 60.5854 30.0432 60.3839 30.7647 59.6845C32.0507 58.4517 31.4861 54.7928 31.1881 53.6114C30.5539 50.9835 30.3329 48.2715 30.5334 45.5745C30.6784 43.5712 31.3528 42.2989 32.533 41.7931C33.9876 41.1728 35.5403 42.046 36.5048 43.0733C38.0732 44.7329 38.8573 46.8666 39.6415 48.9331C39.8611 49.5297 40.0924 50.1501 40.3355 50.7349C41.5138 53.5931 43.209 56.2058 45.3346 58.4398C45.464 58.5781 45.6012 58.7125 45.7267 58.835C46.75 59.8939 47.8047 60.9845 48.2203 62.4899C49.0045 65.3862 46.9774 68.1442 45.3738 69.9657C41.7901 74.0355 38.5358 76.3115 34.3954 79.188C33.7759 79.6463 33.1172 80.1047 32.4389 80.6065Z" fill="black"/>
<path d="M43.3118 80.1482C42.5359 78.4929 42.1285 76.6867 42.1184 74.8561C42.1082 73.0254 42.4955 71.2147 43.253 69.5508C43.253 69.5508 40.7554 65.5047 43.253 63.7385C43.253 63.7385 41.4141 56.3299 45.9741 53.2281C50.5341 50.1264 50.6791 49.1069 51.1339 47.0325C51.5888 44.9581 54.8705 42.3384 58.7992 40.4418C59.8319 39.1923 61.2614 38.3408 62.8455 38.0315C65.5196 37.506 67.8878 39.8372 71.0441 39.1932C74.2004 38.5491 76.4235 38.0394 78.1212 38.561C79.8189 39.0825 82.5557 36.7434 85.5159 38.9561C88.4762 41.1688 91.5462 40.8132 92.9028 40.9317C94.2595 41.0503 104.948 42.5794 102.34 60.0638C102.34 60.0638 100.031 65.3941 103.454 67.8281C106.253 69.8037 108.08 75.1774 106.179 79.5871" fill="white"/>
<path d="M42.633 80.4603C41.8355 78.769 41.4045 76.926 41.3686 75.0538C41.3328 73.1816 41.693 71.3232 42.4252 69.6022C41.8566 68.5432 40.4059 65.3427 42.4252 63.45C42.188 62.1847 42.0972 60.8958 42.1546 59.6094C42.3115 56.4484 43.4877 54.0104 45.554 52.6038C49.7846 49.7273 49.9689 48.8659 50.3767 46.9851L50.4041 46.8705C50.9687 44.2666 54.8347 41.5481 58.3203 39.8412C59.4587 38.5257 60.9999 37.6303 62.6999 37.2966C64.1663 37.0081 65.5112 37.4546 66.8168 37.8853C68.1225 38.316 69.4359 38.7546 70.8945 38.4582L71.4748 38.3397C74.4272 37.7351 76.5719 37.3005 78.3324 37.8418C78.7519 37.9722 79.4302 37.8063 80.1438 37.6285C81.6808 37.2333 83.7824 36.7355 85.9584 38.3753C88.2286 40.0822 90.5537 40.1375 92.0907 40.1691C92.4239 40.1691 92.7102 40.1691 92.9611 40.2086C94.4233 40.3783 95.8378 40.8378 97.1231 41.5607C98.4083 42.2836 99.539 43.2556 100.45 44.4207C103.222 47.9768 104.104 53.2755 103.073 60.1981V60.2969L103.034 60.3878C103.034 60.4352 101.011 65.1886 103.896 67.2393C106.951 69.4086 108.927 75.1419 106.872 79.9111L105.508 79.3105C107.225 75.3276 105.622 70.3015 103.038 68.4642C101.407 67.3065 100.662 65.4138 100.885 62.9877C100.991 61.9242 101.241 60.8805 101.63 59.886C102.575 53.4336 101.791 48.5419 99.2776 45.3453C98.4952 44.3391 97.5227 43.4991 96.4164 42.8738C95.31 42.2485 94.0917 41.8503 92.8317 41.7022C92.6278 41.6825 92.3651 41.6785 92.0475 41.6706C90.4243 41.6351 87.7111 41.5718 85.0566 39.5764C83.4452 38.3594 81.9435 38.7309 80.4888 39.0865C79.5714 39.3117 78.7009 39.529 77.8932 39.2801C76.4778 38.8455 74.5017 39.2524 71.761 39.8096L71.1807 39.9321C69.3379 40.3035 67.7461 39.778 66.3424 39.3117C65.1191 38.9166 64.0605 38.557 62.9783 38.7704C61.5766 39.0461 60.3091 39.7928 59.3829 40.8883L59.2731 41.0345L59.1084 41.1174C55.1876 43.0061 52.2155 45.5034 51.8509 47.1945L51.8235 47.3051C51.3255 49.6127 50.9138 50.7625 46.3774 53.8484C42.3075 56.6143 43.9465 63.4896 43.9621 63.5567L44.0837 64.0546L43.6681 64.3509C41.79 65.6904 43.868 69.1201 43.8916 69.1557L44.0954 69.4876L43.9425 69.8472C43.2255 71.4144 42.858 73.121 42.8662 74.8468C42.8743 76.5726 43.2578 78.2757 43.9896 79.836L42.633 80.4603Z" fill="black"/>
<path d="M71.2944 45.9182C70.0162 45.9189 68.7419 45.7758 67.4951 45.4915C67.3022 45.4475 67.1346 45.3281 67.0291 45.1595C66.9235 44.9909 66.8888 44.787 66.9325 44.5926C66.9762 44.3982 67.0947 44.2292 67.2619 44.1229C67.4292 44.0166 67.6316 43.9816 67.8245 44.0256C70.0811 44.5348 72.4215 44.5348 74.6781 44.0256C74.7743 44.0026 74.874 43.9991 74.9715 44.0153C75.0689 44.0315 75.1623 44.0671 75.246 44.12C75.3297 44.1729 75.4021 44.242 75.4591 44.3234C75.516 44.4048 75.5563 44.4968 75.5776 44.594C75.5989 44.6912 75.6009 44.7918 75.5833 44.8897C75.5657 44.9877 75.5289 45.0812 75.4751 45.1647C75.4213 45.2482 75.3516 45.3201 75.2699 45.3763C75.1883 45.4324 75.0964 45.4715 74.9996 45.4915C73.7838 45.77 72.5413 45.9131 71.2944 45.9182Z" fill="black"/>
<path d="M105.074 50.2014C113.213 51.047 122.376 51.9716 131.081 59.3605C135.045 62.723 136.841 65.3309 137.954 68.1323C139.068 70.9338 139.162 74.237 137.37 76.6552C135.072 79.7688 132.63 78.9549 128.791 79.2117C113.629 80.239 103.133 79.674 85.2695 80.1363C83.4306 80.1837 79.7803 80.1363 79.7803 78.291C79.7803 75.5252 88.0141 69.5153 100.4 69.5153C103.38 69.5153 117.926 63.9835 122.392 63.9835" fill="white"/>
<path d="M84.543 80.8989C82.0063 80.8989 80.4379 80.5038 79.6263 79.7135C79.4337 79.5285 79.2805 79.3059 79.176 79.0593C79.0716 78.8127 79.018 78.5473 79.0186 78.2792C79.0186 74.9325 87.8287 68.7566 100.383 68.7566C101.614 68.7566 105.504 67.5712 109.268 66.4293C114.451 64.8488 119.811 63.2209 122.371 63.213V64.7145C120.019 64.7145 114.53 66.3898 109.695 67.8755C105.476 69.1596 101.83 70.266 100.379 70.266C87.7699 70.266 80.5046 76.3549 80.5046 78.291C80.5034 78.3588 80.5169 78.4261 80.5439 78.4881C80.571 78.5502 80.6111 78.6056 80.6614 78.6506C80.979 78.9628 81.9945 79.4685 85.237 79.3855C92.173 79.2077 97.8896 79.184 103.414 79.1603C112.04 79.1248 119.49 79.0931 128.735 78.4649C129.574 78.4096 130.358 78.4017 131.052 78.3938C133.624 78.374 135.181 78.3582 136.769 76.2087C138.231 74.2331 138.416 71.317 137.259 68.4129C136.051 65.3822 134.122 62.9245 130.594 59.9334C122.097 52.7223 113.063 51.7859 105.088 50.9601H104.99L105.139 49.4665H105.241C113.428 50.316 122.709 51.2801 131.55 58.7836C135.232 61.9051 137.349 64.6196 138.635 67.8518C139.988 71.2459 139.733 74.7033 137.961 77.1057C135.93 79.8715 133.671 79.8715 131.064 79.8953C130.358 79.8953 129.629 79.8953 128.833 79.9624C119.525 80.5907 112.06 80.6223 103.418 80.6618C97.8975 80.6855 92.1926 80.7092 85.2723 80.887L84.543 80.8989Z" fill="black"/>
<path d="M57.3911 32.0967C57.5033 32.6332 57.4549 33.1912 57.2518 33.6999C57.0487 34.2086 56.7001 34.6449 56.2504 34.9536C55.8007 35.2622 55.2701 35.4291 54.726 35.4332C54.1819 35.4373 53.6489 35.2784 53.1947 34.9765C52.7405 34.6747 52.3855 34.2436 52.1749 33.7381C51.9643 33.2325 51.9075 32.6753 52.0119 32.1371C52.1162 31.599 52.3769 31.1042 52.7608 30.7157C53.1447 30.3272 53.6346 30.0624 54.1681 29.9551C54.8769 29.8124 55.6129 29.9573 56.2164 30.3583C56.8198 30.7593 57.2419 31.3839 57.3911 32.0967Z" fill="black"/>
<path d="M83.5895 28.4101C83.671 28.8096 83.6332 29.2245 83.4808 29.6023C83.3285 29.9802 83.0684 30.304 82.7334 30.5329C82.3984 30.7618 82.0036 30.8854 81.5989 30.8883C81.1943 30.8911 80.7978 30.7729 80.4597 30.5487C80.1217 30.3246 79.8571 30.0044 79.6996 29.6287C79.542 29.253 79.4985 28.8387 79.5745 28.4382C79.6506 28.0376 79.8428 27.6687 80.1268 27.3782C80.4109 27.0877 80.774 26.8885 81.1703 26.8059C81.7021 26.6962 82.2554 26.8034 82.7089 27.1041C83.1624 27.4048 83.4791 27.8745 83.5895 28.4101Z" fill="black"/>
</svg>
