<svg width="86" height="68" viewBox="0 0 86 68" fill="none" xmlns="http://www.w3.org/2000/svg">
<g clip-path="url(#clip0_205_1541)">
<g filter="url(#filter0_d_205_1541)">
<path d="M51.332 24.4102C51.0814 25.5723 50.6143 27.1104 49.9307 29.0244C49.0192 31.1663 47.4469 33.388 45.2139 35.6895C43.0036 37.9909 40.3148 40.5202 37.1475 43.2773C33.9801 46.0345 32.0319 47.8232 31.3027 48.6436H44.1885C46.1937 48.6436 47.1963 50.4209 47.1963 53.9756C46.9684 55.2516 46.4102 56.391 45.5215 57.3936C44.6556 58.3734 43.6074 58.8633 42.377 58.8633H17.0156C14.5091 58.8633 13.2559 57.2796 13.2559 54.1123C13.4382 53.0186 13.985 51.8337 14.8965 50.5576C15.8307 49.2588 17.0498 48.0625 18.5537 46.9688C22.3135 43.7786 25.6175 40.8278 28.4658 38.1162C31.3369 35.3818 33.5244 33.1146 35.0283 31.3145C36.555 29.5143 37.6488 28.0446 38.3096 26.9053C38.9932 25.7432 39.3919 24.7747 39.5059 24C39.5059 22.7695 39.1413 21.7669 38.4121 20.9922C37.6829 20.1947 36.7829 19.7959 35.7119 19.7959C34.4587 19.7959 33.5472 19.9896 32.9775 20.377C32.1117 20.901 31.2686 21.8239 30.4482 23.1455C29.6279 24.4443 28.8988 25.6178 28.2607 26.666C27.6455 27.6914 26.8822 28.5573 25.9707 29.2637C25.082 29.9473 23.8971 30.2891 22.416 30.2891C19.9779 30.2891 18.7588 28.9447 18.7588 26.2559C18.7588 25.6634 18.8271 25.0026 18.9639 24.2734C19.1917 23.1113 19.5563 21.915 20.0576 20.6846C20.5589 19.4313 21.0602 18.4401 21.5615 17.7109C22.5641 16.1615 23.7148 14.8285 25.0137 13.7119C26.3125 12.5726 27.6911 11.627 29.1494 10.875C30.6305 10.1003 32.1344 9.5306 33.6611 9.16602C35.2106 8.77865 36.7145 8.58496 38.1729 8.58496C40.5882 8.58496 42.8213 9.09766 44.8721 10.123C46.9229 11.1484 48.5521 12.641 49.7598 14.6006C50.9902 16.5374 51.6055 18.8047 51.6055 21.4023C51.6055 22.4961 51.5143 23.4987 51.332 24.4102Z" fill="#E6E6E6"/>
</g>
<g filter="url(#filter1_d_205_1541)">
<path d="M50.332 23.4102C50.0814 24.5723 49.6143 26.1104 48.9307 28.0244C48.0192 30.1663 46.4469 32.388 44.2139 34.6895C42.0036 36.9909 39.3148 39.5202 36.1475 42.2773C32.9801 45.0345 31.0319 46.8232 30.3027 47.6436H43.1885C45.1937 47.6436 46.1963 49.4209 46.1963 52.9756C45.9684 54.2516 45.4102 55.391 44.5215 56.3936C43.6556 57.3734 42.6074 57.8633 41.377 57.8633H16.0156C13.5091 57.8633 12.2559 56.2796 12.2559 53.1123C12.4382 52.0186 12.985 50.8337 13.8965 49.5576C14.8307 48.2588 16.0498 47.0625 17.5537 45.9688C21.3135 42.7786 24.6175 39.8278 27.4658 37.1162C30.3369 34.3818 32.5244 32.1146 34.0283 30.3145C35.555 28.5143 36.6488 27.0446 37.3096 25.9053C37.9932 24.7432 38.3919 23.7747 38.5059 23C38.5059 21.7695 38.1413 20.7669 37.4121 19.9922C36.6829 19.1947 35.7829 18.7959 34.7119 18.7959C33.4587 18.7959 32.5472 18.9896 31.9775 19.377C31.1117 19.901 30.2686 20.8239 29.4482 22.1455C28.6279 23.4443 27.8988 24.6178 27.2607 25.666C26.6455 26.6914 25.8822 27.5573 24.9707 28.2637C24.082 28.9473 22.8971 29.2891 21.416 29.2891C18.9779 29.2891 17.7588 27.9447 17.7588 25.2559C17.7588 24.6634 17.8271 24.0026 17.9639 23.2734C18.1917 22.1113 18.5563 20.915 19.0576 19.6846C19.5589 18.4313 20.0602 17.4401 20.5615 16.7109C21.5641 15.1615 22.7148 13.8285 24.0137 12.7119C25.3125 11.5726 26.6911 10.627 28.1494 9.875C29.6305 9.10026 31.1344 8.5306 32.6611 8.16602C34.2106 7.77865 35.7145 7.58496 37.1729 7.58496C39.5882 7.58496 41.8213 8.09766 43.8721 9.12305C45.9229 10.1484 47.5521 11.641 48.7598 13.6006C49.9902 15.5374 50.6055 17.8047 50.6055 20.4023C50.6055 21.4961 50.5143 22.4987 50.332 23.4102Z" fill="url(#paint0_linear_205_1541)"/>
</g>
</g>
<defs>
<filter id="filter0_d_205_1541" x="11.2559" y="2.58496" width="50.3496" height="62.2783" filterUnits="userSpaceOnUse" color-interpolation-filters="sRGB">
<feFlood flood-opacity="0" result="BackgroundImageFix"/>
<feColorMatrix in="SourceAlpha" type="matrix" values="0 0 0 0 0 0 0 0 0 0 0 0 0 0 0 0 0 0 127 0" result="hardAlpha"/>
<feOffset dx="4"/>
<feGaussianBlur stdDeviation="3"/>
<feComposite in2="hardAlpha" operator="out"/>
<feColorMatrix type="matrix" values="0 0 0 0 0 0 0 0 0 0 0 0 0 0 0 0 0 0 0.3 0"/>
<feBlend mode="multiply" in2="BackgroundImageFix" result="effect1_dropShadow_205_1541"/>
<feBlend mode="normal" in="SourceGraphic" in2="effect1_dropShadow_205_1541" result="shape"/>
</filter>
<filter id="filter1_d_205_1541" x="3.25586" y="-0.415039" width="58.3496" height="70.2783" filterUnits="userSpaceOnUse" color-interpolation-filters="sRGB">
<feFlood flood-opacity="0" result="BackgroundImageFix"/>
<feColorMatrix in="SourceAlpha" type="matrix" values="0 0 0 0 0 0 0 0 0 0 0 0 0 0 0 0 0 0 127 0" result="hardAlpha"/>
<feOffset dx="1" dy="2"/>
<feGaussianBlur stdDeviation="5"/>
<feComposite in2="hardAlpha" operator="out"/>
<feColorMatrix type="matrix" values="0 0 0 0 0 0 0 0 0 0 0 0 0 0 0 0 0 0 0.2 0"/>
<feBlend mode="multiply" in2="BackgroundImageFix" result="effect1_dropShadow_205_1541"/>
<feBlend mode="normal" in="SourceGraphic" in2="effect1_dropShadow_205_1541" result="shape"/>
</filter>
<linearGradient id="paint0_linear_205_1541" x1="29.5" y1="-8.25" x2="29.5" y2="58.25" gradientUnits="userSpaceOnUse">
<stop stop-color="white"/>
<stop offset="0.421386" stop-color="white"/>
</linearGradient>
<clipPath id="clip0_205_1541">
<rect width="86" height="68" fill="white"/>
</clipPath>
</defs>
</svg>
