<svg width="86" height="68" viewBox="0 0 86 68" fill="none" xmlns="http://www.w3.org/2000/svg">
<g clip-path="url(#clip0_205_1914)">
<g filter="url(#filter0_d_205_1914)">
<path d="M49.8877 21.915C49.5459 23.7607 48.7939 25.5609 47.6318 27.3154C46.4925 29.0472 45.0342 30.5511 43.2568 31.8271C45.0798 33.012 46.4469 34.516 47.3584 36.3389C48.2699 38.139 48.7256 40.0872 48.7256 42.1836C48.7256 42.9128 48.6458 43.7559 48.4863 44.7129C48.0306 47.2194 46.8571 49.6576 44.9658 52.0273C43.0973 54.3971 40.7617 56.3226 37.959 57.8037C35.1562 59.262 32.2282 59.9912 29.1748 59.9912C27.0101 59.9912 24.6973 59.5013 22.2363 58.5215C19.7982 57.5417 17.7474 56.2542 16.084 54.6592C14.4434 53.0413 13.623 51.3665 13.623 49.6348V46.9688C13.9876 45.1003 14.7054 43.7217 15.7764 42.833C16.8473 41.9443 18.0436 41.5 19.3652 41.5C20.5046 41.5 21.5413 41.7507 22.4756 42.252C23.4098 42.7533 23.9909 43.4368 24.2188 44.3027C24.515 45.2142 24.9821 46.0231 25.6201 46.7295C26.2581 47.4359 26.9873 47.9827 27.8076 48.3701C28.6279 48.7347 29.4596 48.917 30.3027 48.917C31.6927 48.917 33.0371 48.4954 34.3359 47.6523C35.6576 46.7865 36.4323 45.6699 36.6602 44.3027C36.6602 42.4342 36.3411 40.9645 35.7031 39.8936C35.0879 38.8226 34.1764 38.2871 32.9688 38.2871C32.946 38.2871 32.832 38.3099 32.627 38.3555C32.4219 38.401 32.2965 38.4238 32.251 38.4238C30.6787 38.4238 29.4368 37.877 28.5254 36.7832C27.6139 35.6667 27.1582 34.2083 27.1582 32.4082C27.3861 31.1549 28.0583 30.0726 29.1748 29.1611C30.2913 28.2269 31.7839 27.6686 33.6523 27.4863C35.179 26.985 36.4095 26.29 37.3438 25.4014C38.3008 24.5127 38.8477 23.624 38.9844 22.7354C38.9844 21.6644 38.654 20.7985 37.9932 20.1377C37.3551 19.4541 36.4893 19.1123 35.3955 19.1123C34.8258 19.1123 34.1195 19.249 33.2764 19.5225C32.4561 19.7959 31.613 20.2174 30.7471 20.7871C29.8812 21.334 28.9583 22.0745 27.9785 23.0088C26.6113 24.5127 25.1188 25.2646 23.501 25.2646C22.4072 25.2646 21.4844 24.7861 20.7324 23.8291C19.9805 22.8721 19.6045 21.5732 19.6045 19.9326C19.6729 19.4085 19.8779 18.8047 20.2197 18.1211C20.516 17.2096 21.5869 15.9678 23.4326 14.3955C25.2783 12.8232 27.4886 11.4447 30.0635 10.2598C32.6611 9.05208 35.2132 8.44824 37.7197 8.44824C39.7249 8.44824 41.4909 8.76725 43.0176 9.40527C44.5671 10.0205 45.8773 10.8864 46.9482 12.0029C48.0192 13.0967 48.8167 14.3385 49.3408 15.7285C49.8649 17.1185 50.127 18.5199 50.127 19.9326C50.127 20.5023 50.0472 21.1631 49.8877 21.915Z" fill="#E6E6E6"/>
</g>
<g filter="url(#filter1_d_205_1914)">
<path d="M48.8877 20.915C48.5459 22.7607 47.7939 24.5609 46.6318 26.3154C45.4925 28.0472 44.0342 29.5511 42.2568 30.8271C44.0798 32.012 45.4469 33.516 46.3584 35.3389C47.2699 37.139 47.7256 39.0872 47.7256 41.1836C47.7256 41.9128 47.6458 42.7559 47.4863 43.7129C47.0306 46.2194 45.8571 48.6576 43.9658 51.0273C42.0973 53.3971 39.7617 55.3226 36.959 56.8037C34.1562 58.262 31.2282 58.9912 28.1748 58.9912C26.0101 58.9912 23.6973 58.5013 21.2363 57.5215C18.7982 56.5417 16.7474 55.2542 15.084 53.6592C13.4434 52.0413 12.623 50.3665 12.623 48.6348V45.9688C12.9876 44.1003 13.7054 42.7217 14.7764 41.833C15.8473 40.9443 17.0436 40.5 18.3652 40.5C19.5046 40.5 20.5413 40.7507 21.4756 41.252C22.4098 41.7533 22.9909 42.4368 23.2188 43.3027C23.515 44.2142 23.9821 45.0231 24.6201 45.7295C25.2581 46.4359 25.9873 46.9827 26.8076 47.3701C27.6279 47.7347 28.4596 47.917 29.3027 47.917C30.6927 47.917 32.0371 47.4954 33.3359 46.6523C34.6576 45.7865 35.4323 44.6699 35.6602 43.3027C35.6602 41.4342 35.3411 39.9645 34.7031 38.8936C34.0879 37.8226 33.1764 37.2871 31.9688 37.2871C31.946 37.2871 31.832 37.3099 31.627 37.3555C31.4219 37.401 31.2965 37.4238 31.251 37.4238C29.6787 37.4238 28.4368 36.877 27.5254 35.7832C26.6139 34.6667 26.1582 33.2083 26.1582 31.4082C26.3861 30.1549 27.0583 29.0726 28.1748 28.1611C29.2913 27.2269 30.7839 26.6686 32.6523 26.4863C34.179 25.985 35.4095 25.29 36.3438 24.4014C37.3008 23.5127 37.8477 22.624 37.9844 21.7354C37.9844 20.6644 37.654 19.7985 36.9932 19.1377C36.3551 18.4541 35.4893 18.1123 34.3955 18.1123C33.8258 18.1123 33.1195 18.249 32.2764 18.5225C31.4561 18.7959 30.613 19.2174 29.7471 19.7871C28.8812 20.334 27.9583 21.0745 26.9785 22.0088C25.6113 23.5127 24.1188 24.2646 22.501 24.2646C21.4072 24.2646 20.4844 23.7861 19.7324 22.8291C18.9805 21.8721 18.6045 20.5732 18.6045 18.9326C18.6729 18.4085 18.8779 17.8047 19.2197 17.1211C19.516 16.2096 20.5869 14.9678 22.4326 13.3955C24.2783 11.8232 26.4886 10.4447 29.0635 9.25977C31.6611 8.05208 34.2132 7.44824 36.7197 7.44824C38.7249 7.44824 40.4909 7.76725 42.0176 8.40527C43.5671 9.02051 44.8773 9.88639 45.9482 11.0029C47.0192 12.0967 47.8167 13.3385 48.3408 14.7285C48.8649 16.1185 49.127 17.5199 49.127 18.9326C49.127 19.5023 49.0472 20.1631 48.8877 20.915Z" fill="url(#paint0_linear_205_1914)"/>
</g>
</g>
<defs>
<filter id="filter0_d_205_1914" x="11.623" y="2.44824" width="48.5039" height="63.543" filterUnits="userSpaceOnUse" color-interpolation-filters="sRGB">
<feFlood flood-opacity="0" result="BackgroundImageFix"/>
<feColorMatrix in="SourceAlpha" type="matrix" values="0 0 0 0 0 0 0 0 0 0 0 0 0 0 0 0 0 0 127 0" result="hardAlpha"/>
<feOffset dx="4"/>
<feGaussianBlur stdDeviation="3"/>
<feComposite in2="hardAlpha" operator="out"/>
<feColorMatrix type="matrix" values="0 0 0 0 0 0 0 0 0 0 0 0 0 0 0 0 0 0 0.3 0"/>
<feBlend mode="multiply" in2="BackgroundImageFix" result="effect1_dropShadow_205_1914"/>
<feBlend mode="normal" in="SourceGraphic" in2="effect1_dropShadow_205_1914" result="shape"/>
</filter>
<filter id="filter1_d_205_1914" x="3.62305" y="-0.551758" width="56.5039" height="71.543" filterUnits="userSpaceOnUse" color-interpolation-filters="sRGB">
<feFlood flood-opacity="0" result="BackgroundImageFix"/>
<feColorMatrix in="SourceAlpha" type="matrix" values="0 0 0 0 0 0 0 0 0 0 0 0 0 0 0 0 0 0 127 0" result="hardAlpha"/>
<feOffset dx="1" dy="2"/>
<feGaussianBlur stdDeviation="5"/>
<feComposite in2="hardAlpha" operator="out"/>
<feColorMatrix type="matrix" values="0 0 0 0 0 0 0 0 0 0 0 0 0 0 0 0 0 0 0.2 0"/>
<feBlend mode="multiply" in2="BackgroundImageFix" result="effect1_dropShadow_205_1914"/>
<feBlend mode="normal" in="SourceGraphic" in2="effect1_dropShadow_205_1914" result="shape"/>
</filter>
<linearGradient id="paint0_linear_205_1914" x1="28.5" y1="-8.25" x2="28.5" y2="58.25" gradientUnits="userSpaceOnUse">
<stop stop-color="white"/>
<stop offset="0.421386" stop-color="white"/>
</linearGradient>
<clipPath id="clip0_205_1914">
<rect width="86" height="68" fill="white"/>
</clipPath>
</defs>
</svg>
