<svg width="86" height="68" viewBox="0 0 86 68" fill="none" xmlns="http://www.w3.org/2000/svg">
<g clip-path="url(#clip0_205_1505)">
<g filter="url(#filter0_d_205_1505)">
<path d="M51.417 14.6348C51.1891 16.0475 50.5625 17.2666 49.5371 18.292C48.5345 19.2946 47.2699 19.7959 45.7432 19.7959H32.1738L30.6357 25.2646C32.7549 24.7861 34.4753 24.5469 35.7969 24.5469C38.2122 24.5469 40.3086 25.1165 42.0859 26.2559C43.8633 27.3952 45.2305 28.9561 46.1875 30.9385C47.1445 32.8981 47.623 35.1312 47.623 37.6377C47.623 38.8454 47.5319 39.9505 47.3496 40.9531C46.8939 43.6191 45.9368 46.1029 44.4785 48.4043C43.043 50.6829 41.3112 52.6084 39.2832 54.1807C37.278 55.7529 35.1133 56.9606 32.7891 57.8037C30.4876 58.6468 28.2546 59.0911 26.0898 59.1367C24.0618 59.1367 22.0452 58.8747 20.04 58.3506C18.0348 57.8265 16.3372 57.1087 14.9473 56.1973C13.8991 55.4681 13.1471 54.625 12.6914 53.668C12.2357 52.6882 12.0078 51.4349 12.0078 49.9082C12.1901 48.9056 12.5775 47.9714 13.1699 47.1055C13.7852 46.2168 14.5143 45.5104 15.3574 44.9863C16.2233 44.4395 17.0892 44.166 17.9551 44.166C19.2539 44.166 20.2793 44.5876 21.0312 45.4307C22.1934 46.3193 23.2985 47.0143 24.3467 47.5156C25.3949 47.9941 26.6025 48.2334 27.9697 48.2334C28.9723 48.2334 29.9635 47.9827 30.9434 47.4814C31.946 46.9574 32.846 46.194 33.6436 45.1914C34.4411 44.166 35.0449 42.9355 35.4551 41.5C35.5918 40.8164 35.6602 40.167 35.6602 39.5518C35.6602 37.6605 35.1589 36.2363 34.1562 35.2793C33.1536 34.2995 31.9574 33.8096 30.5674 33.8096C30.0433 33.8096 29.4508 33.9349 28.79 34.1855C28.152 34.4134 27.6507 34.7096 27.2861 35.0742C26.8076 35.416 26.1468 35.735 25.3037 36.0312C24.4606 36.3275 23.6175 36.4756 22.7744 36.4756C20.04 36.4756 18.6729 35.0742 18.6729 32.2715L23.9707 13.917C24.2669 12.4131 24.9961 11.3193 26.1582 10.6357C27.3203 9.92936 28.6761 9.57617 30.2256 9.57617H47.5547C48.8535 9.57617 49.8447 9.94076 50.5283 10.6699C51.2119 11.3991 51.5537 12.3447 51.5537 13.5068C51.5537 13.7575 51.5081 14.1335 51.417 14.6348Z" fill="#E6E6E6"/>
</g>
<g filter="url(#filter1_d_205_1505)">
<path d="M50.417 13.6348C50.1891 15.0475 49.5625 16.2666 48.5371 17.292C47.5345 18.2946 46.2699 18.7959 44.7432 18.7959H31.1738L29.6357 24.2646C31.7549 23.7861 33.4753 23.5469 34.7969 23.5469C37.2122 23.5469 39.3086 24.1165 41.0859 25.2559C42.8633 26.3952 44.2305 27.9561 45.1875 29.9385C46.1445 31.8981 46.623 34.1312 46.623 36.6377C46.623 37.8454 46.5319 38.9505 46.3496 39.9531C45.8939 42.6191 44.9368 45.1029 43.4785 47.4043C42.043 49.6829 40.3112 51.6084 38.2832 53.1807C36.278 54.7529 34.1133 55.9606 31.7891 56.8037C29.4876 57.6468 27.2546 58.0911 25.0898 58.1367C23.0618 58.1367 21.0452 57.8747 19.04 57.3506C17.0348 56.8265 15.3372 56.1087 13.9473 55.1973C12.8991 54.4681 12.1471 53.625 11.6914 52.668C11.2357 51.6882 11.0078 50.4349 11.0078 48.9082C11.1901 47.9056 11.5775 46.9714 12.1699 46.1055C12.7852 45.2168 13.5143 44.5104 14.3574 43.9863C15.2233 43.4395 16.0892 43.166 16.9551 43.166C18.2539 43.166 19.2793 43.5876 20.0312 44.4307C21.1934 45.3193 22.2985 46.0143 23.3467 46.5156C24.3949 46.9941 25.6025 47.2334 26.9697 47.2334C27.9723 47.2334 28.9635 46.9827 29.9434 46.4814C30.946 45.9574 31.846 45.194 32.6436 44.1914C33.4411 43.166 34.0449 41.9355 34.4551 40.5C34.5918 39.8164 34.6602 39.167 34.6602 38.5518C34.6602 36.6605 34.1589 35.2363 33.1562 34.2793C32.1536 33.2995 30.9574 32.8096 29.5674 32.8096C29.0433 32.8096 28.4508 32.9349 27.79 33.1855C27.152 33.4134 26.6507 33.7096 26.2861 34.0742C25.8076 34.416 25.1468 34.735 24.3037 35.0312C23.4606 35.3275 22.6175 35.4756 21.7744 35.4756C19.04 35.4756 17.6729 34.0742 17.6729 31.2715L22.9707 12.917C23.2669 11.4131 23.9961 10.3193 25.1582 9.63574C26.3203 8.92936 27.6761 8.57617 29.2256 8.57617H46.5547C47.8535 8.57617 48.8447 8.94076 49.5283 9.66992C50.2119 10.3991 50.5537 11.3447 50.5537 12.5068C50.5537 12.7575 50.5081 13.1335 50.417 13.6348Z" fill="url(#paint0_linear_205_1505)"/>
</g>
</g>
<defs>
<filter id="filter0_d_205_1505" x="10.0078" y="3.57617" width="51.5459" height="61.5605" filterUnits="userSpaceOnUse" color-interpolation-filters="sRGB">
<feFlood flood-opacity="0" result="BackgroundImageFix"/>
<feColorMatrix in="SourceAlpha" type="matrix" values="0 0 0 0 0 0 0 0 0 0 0 0 0 0 0 0 0 0 127 0" result="hardAlpha"/>
<feOffset dx="4"/>
<feGaussianBlur stdDeviation="3"/>
<feComposite in2="hardAlpha" operator="out"/>
<feColorMatrix type="matrix" values="0 0 0 0 0 0 0 0 0 0 0 0 0 0 0 0 0 0 0.3 0"/>
<feBlend mode="multiply" in2="BackgroundImageFix" result="effect1_dropShadow_205_1505"/>
<feBlend mode="normal" in="SourceGraphic" in2="effect1_dropShadow_205_1505" result="shape"/>
</filter>
<filter id="filter1_d_205_1505" x="2.00781" y="0.576172" width="59.5459" height="69.5605" filterUnits="userSpaceOnUse" color-interpolation-filters="sRGB">
<feFlood flood-opacity="0" result="BackgroundImageFix"/>
<feColorMatrix in="SourceAlpha" type="matrix" values="0 0 0 0 0 0 0 0 0 0 0 0 0 0 0 0 0 0 127 0" result="hardAlpha"/>
<feOffset dx="1" dy="2"/>
<feGaussianBlur stdDeviation="5"/>
<feComposite in2="hardAlpha" operator="out"/>
<feColorMatrix type="matrix" values="0 0 0 0 0 0 0 0 0 0 0 0 0 0 0 0 0 0 0.2 0"/>
<feBlend mode="multiply" in2="BackgroundImageFix" result="effect1_dropShadow_205_1505"/>
<feBlend mode="normal" in="SourceGraphic" in2="effect1_dropShadow_205_1505" result="shape"/>
</filter>
<linearGradient id="paint0_linear_205_1505" x1="27.5" y1="-8.25" x2="27.5" y2="58.25" gradientUnits="userSpaceOnUse">
<stop stop-color="white"/>
<stop offset="0.421386" stop-color="white"/>
</linearGradient>
<clipPath id="clip0_205_1505">
<rect width="86" height="68" fill="white"/>
</clipPath>
</defs>
</svg>
