<svg width="86" height="68" viewBox="0 0 86 68" fill="none" xmlns="http://www.w3.org/2000/svg">
<g clip-path="url(#clip0_205_1906)">
<g filter="url(#filter0_d_205_1906)">
<path d="M49.127 44.3027C48.6257 47.2422 47.5547 49.7715 45.9141 51.8906C44.2734 53.987 42.3936 55.6162 40.2744 56.7783C38.1781 57.9176 36.002 58.738 33.7461 59.2393C31.4902 59.7406 29.4508 59.9912 27.6279 59.9912C25.6455 59.9912 23.7998 59.6038 22.0908 58.8291C20.3818 58.0316 18.9007 56.9492 17.6475 55.582C16.417 54.1921 15.46 52.5742 14.7764 50.7285C14.0928 48.8828 13.751 46.9688 13.751 44.9863C13.751 43.847 13.8421 42.776 14.0244 41.7734C14.4574 39.3125 15.5283 36.6579 17.2373 33.8096C18.9691 30.9385 20.8717 28.2611 22.9453 25.7773C25.0189 23.2936 27.1038 20.9466 29.2002 18.7363C31.3193 16.526 33.0283 14.7373 34.3271 13.3701C37.3805 10.18 40.1377 8.58496 42.5986 8.58496C43.7835 8.58496 44.7406 8.98372 45.4697 9.78125C46.2217 10.5788 46.5977 11.627 46.5977 12.9258C46.5977 13.222 46.5521 13.6436 46.4609 14.1904C46.3926 14.7601 46.1533 15.5576 45.7432 16.583L34.0537 28.0674C35.4893 27.7712 36.8223 27.623 38.0527 27.623C40.2858 27.623 42.2796 28.2269 44.0342 29.4346C45.7887 30.6195 47.1217 32.2373 48.0332 34.2881C48.9447 36.3161 49.4004 38.5378 49.4004 40.9531C49.4004 42.1836 49.3092 43.3001 49.127 44.3027ZM37.916 42.7646C37.916 40.8734 37.3919 39.4492 36.3438 38.4922C35.3184 37.5124 34.0423 37.0225 32.5156 37.0225C30.8294 37.0225 29.2799 37.5921 27.8672 38.7314C26.4772 39.848 25.5771 41.5228 25.167 43.7559C25.3493 45.4421 25.862 46.7979 26.7051 47.8232C27.5482 48.8258 28.5964 49.3271 29.8496 49.3271C31.2396 49.3271 32.7777 48.7461 34.4639 47.584C36.1501 46.3991 37.278 44.9294 37.8477 43.1748L37.916 42.7646Z" fill="#E6E6E6"/>
</g>
<g filter="url(#filter1_d_205_1906)">
<path d="M48.127 43.3027C47.6257 46.2422 46.5547 48.7715 44.9141 50.8906C43.2734 52.987 41.3936 54.6162 39.2744 55.7783C37.1781 56.9176 35.002 57.738 32.7461 58.2393C30.4902 58.7406 28.4508 58.9912 26.6279 58.9912C24.6455 58.9912 22.7998 58.6038 21.0908 57.8291C19.3818 57.0316 17.9007 55.9492 16.6475 54.582C15.417 53.1921 14.46 51.5742 13.7764 49.7285C13.0928 47.8828 12.751 45.9688 12.751 43.9863C12.751 42.847 12.8421 41.776 13.0244 40.7734C13.4574 38.3125 14.5283 35.6579 16.2373 32.8096C17.9691 29.9385 19.8717 27.2611 21.9453 24.7773C24.0189 22.2936 26.1038 19.9466 28.2002 17.7363C30.3193 15.526 32.0283 13.7373 33.3271 12.3701C36.3805 9.18001 39.1377 7.58496 41.5986 7.58496C42.7835 7.58496 43.7406 7.98372 44.4697 8.78125C45.2217 9.57878 45.5977 10.627 45.5977 11.9258C45.5977 12.222 45.5521 12.6436 45.4609 13.1904C45.3926 13.7601 45.1533 14.5576 44.7432 15.583L33.0537 27.0674C34.4893 26.7712 35.8223 26.623 37.0527 26.623C39.2858 26.623 41.2796 27.2269 43.0342 28.4346C44.7887 29.6195 46.1217 31.2373 47.0332 33.2881C47.9447 35.3161 48.4004 37.5378 48.4004 39.9531C48.4004 41.1836 48.3092 42.3001 48.127 43.3027ZM36.916 41.7646C36.916 39.8734 36.3919 38.4492 35.3438 37.4922C34.3184 36.5124 33.0423 36.0225 31.5156 36.0225C29.8294 36.0225 28.2799 36.5921 26.8672 37.7314C25.4772 38.848 24.5771 40.5228 24.167 42.7559C24.3493 44.4421 24.862 45.7979 25.7051 46.8232C26.5482 47.8258 27.5964 48.3271 28.8496 48.3271C30.2396 48.3271 31.7777 47.7461 33.4639 46.584C35.1501 45.3991 36.278 43.9294 36.8477 42.1748L36.916 41.7646Z" fill="url(#paint0_linear_205_1906)"/>
</g>
</g>
<defs>
<filter id="filter0_d_205_1906" x="11.751" y="2.58496" width="47.6494" height="63.4062" filterUnits="userSpaceOnUse" color-interpolation-filters="sRGB">
<feFlood flood-opacity="0" result="BackgroundImageFix"/>
<feColorMatrix in="SourceAlpha" type="matrix" values="0 0 0 0 0 0 0 0 0 0 0 0 0 0 0 0 0 0 127 0" result="hardAlpha"/>
<feOffset dx="4"/>
<feGaussianBlur stdDeviation="3"/>
<feComposite in2="hardAlpha" operator="out"/>
<feColorMatrix type="matrix" values="0 0 0 0 0 0 0 0 0 0 0 0 0 0 0 0 0 0 0.3 0"/>
<feBlend mode="multiply" in2="BackgroundImageFix" result="effect1_dropShadow_205_1906"/>
<feBlend mode="normal" in="SourceGraphic" in2="effect1_dropShadow_205_1906" result="shape"/>
</filter>
<filter id="filter1_d_205_1906" x="3.75098" y="-0.415039" width="55.6494" height="71.4062" filterUnits="userSpaceOnUse" color-interpolation-filters="sRGB">
<feFlood flood-opacity="0" result="BackgroundImageFix"/>
<feColorMatrix in="SourceAlpha" type="matrix" values="0 0 0 0 0 0 0 0 0 0 0 0 0 0 0 0 0 0 127 0" result="hardAlpha"/>
<feOffset dx="1" dy="2"/>
<feGaussianBlur stdDeviation="5"/>
<feComposite in2="hardAlpha" operator="out"/>
<feColorMatrix type="matrix" values="0 0 0 0 0 0 0 0 0 0 0 0 0 0 0 0 0 0 0.2 0"/>
<feBlend mode="multiply" in2="BackgroundImageFix" result="effect1_dropShadow_205_1906"/>
<feBlend mode="normal" in="SourceGraphic" in2="effect1_dropShadow_205_1906" result="shape"/>
</filter>
<linearGradient id="paint0_linear_205_1906" x1="28.5" y1="-8.25" x2="28.5" y2="58.25" gradientUnits="userSpaceOnUse">
<stop stop-color="white"/>
<stop offset="0.421386" stop-color="white"/>
</linearGradient>
<clipPath id="clip0_205_1906">
<rect width="86" height="68" fill="white"/>
</clipPath>
</defs>
</svg>
