<svg width="16" height="16" viewBox="0 0 16 16" fill="none" xmlns="http://www.w3.org/2000/svg">
<circle cx="8" cy="8" r="8" transform="rotate(-90 8 8)" fill="#FF5258"/>
<path d="M8.48867 11.4222L8.48867 5.96132L10.8744 8.3471C11.0651 8.53777 11.378 8.53777 11.5687 8.3471C11.7593 8.15644 11.7593 7.84844 11.5687 7.65777L8.34689 4.43599C8.15622 4.24532 7.84823 4.24532 7.65756 4.43599L4.43578 7.65777C4.24511 7.84844 4.24511 8.15644 4.43578 8.3471C4.62645 8.53777 4.93445 8.53777 5.12511 8.3471L7.51089 5.96132L7.51089 11.4222C7.51089 11.6911 7.73089 11.9111 7.99978 11.9111C8.26867 11.9111 8.48867 11.6911 8.48867 11.4222Z" fill="white"/>
</svg>
