<svg width="24" height="24" viewBox="0 0 24 24" fill="none" xmlns="http://www.w3.org/2000/svg">
<path d="M0 3L2.99997 0L5.99994 3H0Z" fill="#781B1E"/>
<path d="M21 18L24 21L21 24V18Z" fill="#781B1E"/>
<path d="M23.9998 0H3V21H23.9998V0Z" fill="#FF5258"/>
<path fill-rule="evenodd" clip-rule="evenodd" d="M13.4978 10.6719L11.0322 5.89946C10.4396 4.9894 9.29674 5.25924 8.79939 5.50792C7.92109 6.01057 7.98988 7.0476 8.13273 7.50263L11.9687 14.8624C12.3761 15.6137 13.1538 15.7513 13.4925 15.7248C13.8311 15.7513 14.6142 15.6137 15.0163 14.8624L18.8522 7.50263C18.9951 7.0476 19.0638 6.00528 18.1855 5.50792C17.6882 5.25924 16.5506 4.9894 15.9528 5.89946L13.4872 10.6719H13.4978Z" fill="white"/>
</svg>
